<svg id="beachball" xmlns="http://www.w3.org/2000/svg" width="1.68in" height="1.68in" viewBox="0 0 121.26 121.26"><title>beachball</title><g id="ball"><circle cx="60.63" cy="60.63" r="58.13" fill="#eaeaea"/></g><g id="circle"><path d="M60.63,121.26a60.63,60.63,0,1,1,60.63-60.63A60.7,60.7,0,0,1,60.63,121.26ZM60.63,5a55.63,55.63,0,1,0,55.63,55.63A55.7,55.7,0,0,0,60.63,5Z" fill="#dcdbd9"/></g><g id="solid"><path d="M59.75,70.75A58.16,58.16,0,0,1,31.57,111h0a58.58,58.58,0,0,1-17-14.86l-.25-.33A58.19,58.19,0,0,0,55.9,69.62,10.24,10.24,0,0,0,59.75,70.75Z" fill="#ffc83a"/><path d="M55.9,69.62A58.19,58.19,0,0,1,14.33,95.79l-.6-.8-.8-1.11,0,0c-.27-.39-.54-.78-.8-1.18l-.51-.78c-.2-.32-.4-.64-.59-1s-.41-.68-.61-1l-.58-1c-.19-.34-.38-.69-.56-1l-.54-1c-.18-.35-.35-.7-.52-1.06a55,55,0,0,1-3-7.65c-.11-.38-.23-.75-.34-1.13l-.36-1.27a58.19,58.19,0,0,0,48.39-8.52s0,0,0,0c.19.22.39.44.6.65a.23.23,0,0,0,.07.07c.2.19.4.38.62.56l.11.09A10.56,10.56,0,0,0,55.9,69.62Z" fill="#ffd16d"/><path d="M111,89.7a58.37,58.37,0,0,1-15.2,17.23,58.45,58.45,0,0,0-8.37-23.49A57.86,57.86,0,0,0,69.65,65.38l0,0a10.06,10.06,0,0,0,1.13-3.85h0A58.16,58.16,0,0,1,111,89.69Z" fill="#ef5144"/><path d="M95.79,106.93l-.8.6-1.11.8,0,0c-.39.27-.78.54-1.18.8l-.78.51-1,.59-1,.61-1,.58c-.69.38-1.38.75-2.08,1.1l-1.06.52a56.28,56.28,0,0,1-10,3.73h0A58.19,58.19,0,0,0,67.16,68.4l.37-.32.35-.34a10.35,10.35,0,0,0,1.49-1.93c.09-.15.17-.3.25-.45l0,0A57.86,57.86,0,0,1,87.42,83.44,58.45,58.45,0,0,1,95.79,106.93Z" fill="#f15e54"/><path d="M106.93,25.47a58.25,58.25,0,0,0-23.49,8.37A57.65,57.65,0,0,0,65.38,51.61l0,0a9.89,9.89,0,0,0-3.85-1.13v0A58.18,58.18,0,0,1,89.7,10.28,58.48,58.48,0,0,1,106.93,25.47Z" fill="#ffc83a"/><path d="M116.8,45.58h0a58.2,58.2,0,0,0-48.38,8.51h0q-.32-.37-.66-.72a10.79,10.79,0,0,0-1.49-1.21c-.29-.18-.58-.36-.89-.52l0,0A57.65,57.65,0,0,1,83.44,33.84a58.25,58.25,0,0,1,23.49-8.37c.48.63.94,1.26,1.4,1.91l0,.05c.27.39.54.78.8,1.18.38.57.74,1.15,1.1,1.74.21.34.41.68.61,1,.59,1,1.15,2.05,1.68,3.1.18.35.35.7.52,1.06a53.75,53.75,0,0,1,2.65,6.53c.13.38.25.75.37,1.12C116.35,44,116.58,44.77,116.8,45.58Z" fill="#ffd16d"/><path d="M51.64,55.9a10.23,10.23,0,0,0-1.12,3.85h0A57.74,57.74,0,0,1,27.12,50,58.25,58.25,0,0,1,10.28,31.57a58.3,58.3,0,0,1,14.86-17l.33-.25a58.56,58.56,0,0,0,8.38,23.51A57.68,57.68,0,0,0,51.64,55.9Z" fill="#ef5144"/><path d="M54.1,52.86a9.07,9.07,0,0,0-.72.67,8.93,8.93,0,0,0-.65.73q-.16.2-.3.39a7.4,7.4,0,0,0-.44.65l-.09.15c-.09.15-.18.3-.26.45a57.68,57.68,0,0,1-17.79-18,58.56,58.56,0,0,1-8.38-23.51c.27-.21.53-.41.8-.6l1.11-.8.05,0c.39-.27.78-.54,1.18-.8l.78-.51,1-.59,1-.61c1-.6,2-1.16,3.1-1.68l1.06-.52,1.06-.5a51.8,51.8,0,0,1,5.47-2.16c1.16-.4,2.33-.75,3.52-1.07h0A58.17,58.17,0,0,0,54.1,52.86Z" fill="#f15e54"/></g><g id="outline"><path d="M31.57,113.49a2.49,2.49,0,0,1-.61-.08,2.85,2.85,0,0,1-.65-.26A61.09,61.09,0,0,1,2.05,76.33a2.5,2.5,0,0,1,3.07-3.06,55.51,55.51,0,0,0,46.3-8.15,2.48,2.48,0,0,1,2-.4A2.44,2.44,0,0,1,55,65.88a2.5,2.5,0,0,1-.8,3.4A60.44,60.44,0,0,1,8.14,79.09a56.18,56.18,0,0,0,23.43,29A55.51,55.51,0,0,0,57.29,70.31a2.5,2.5,0,1,1,4.93.87,60.53,60.53,0,0,1-29.4,42A2.55,2.55,0,0,1,31.57,113.49Z" fill="#f2b61c"/><path d="M75.68,119.29a2.49,2.49,0,0,1-1.52-.51,2.54,2.54,0,0,1-1-2,2.35,2.35,0,0,1,.09-.64,55.53,55.53,0,0,0-8.15-46.31,2.5,2.5,0,0,1,3.16-3.67,2.45,2.45,0,0,1,1,.84,60.43,60.43,0,0,1,9.85,46.11,56.21,56.21,0,0,0,29-23.42A55.49,55.49,0,0,0,70.37,64,2.5,2.5,0,0,1,71,59l.22,0a60.53,60.53,0,0,1,41.91,29.36,2.51,2.51,0,0,1,0,2.54,61.13,61.13,0,0,1-36.82,28.26A2.36,2.36,0,0,1,75.68,119.29Z" fill="#d63d30"/><path d="M69.84,56.15,67,52.05a60.42,60.42,0,0,1,46.16-9.87,56.23,56.23,0,0,0-23.43-29A55.47,55.47,0,0,0,64,50.89,2.52,2.52,0,0,1,61.25,53,2.49,2.49,0,0,1,59,50.25s0-.15,0-.21A60.52,60.52,0,0,1,88.34,8.17,2.52,2.52,0,0,1,91,8.11a61.09,61.09,0,0,1,28.26,36.83A2.49,2.49,0,0,1,116,48,55.48,55.48,0,0,0,69.84,56.15Z" fill="#f2b61c"/><path d="M50.52,62.25a3.11,3.11,0,0,1-.43,0A60.49,60.49,0,0,1,8.15,32.87a2.5,2.5,0,0,1,0-2.56A61.13,61.13,0,0,1,44.93,2.05,2.49,2.49,0,0,1,48,3.86a2.45,2.45,0,0,1,0,1.26,55.51,55.51,0,0,0,8.15,46.3l-2,1.44L52,54.25h0a60.35,60.35,0,0,1-9.84-46.1,56.1,56.1,0,0,0-29,23.43A55.47,55.47,0,0,0,50.88,57.28a3,3,0,0,1,.43.1,2.5,2.5,0,0,1-.79,4.87Z" fill="#d63d30"/></g><g id="center"><path d="M60.63,72.2A11.57,11.57,0,1,1,72.2,60.63,11.57,11.57,0,0,1,60.63,72.2Zm0-18.56a7,7,0,1,0,7,7A7,7,0,0,0,60.63,53.64Z" fill="#dcdbd9"/></g></svg>