<svg id="coconut_tree" data-name="coconut tree" xmlns="http://www.w3.org/2000/svg" width="3.65in" height="5.51in" viewBox="0 0 263.13 396.72"><title>coconut_tree</title><g id="shadow"><path d="M213.73,342.43a257.88,257.88,0,0,1-2.42,35.26,374.71,374.71,0,0,0-46.14-4.29,291.11,291.11,0,0,0,7-63.68,288.46,288.46,0,0,0-50.89-164.05A255.15,255.15,0,0,1,213.73,342.43Z" fill="#b66a28"/></g><g id="highlight"><path d="M215.87,341a257.29,257.29,0,0,1-2,32.2H191.52c19.45-137.31-61.17-222.73-67.6-228.55A255.07,255.07,0,0,1,215.87,341Z" fill="#db7d2f"/></g><g id="details"><rect x="165.64" y="249.51" width="31.23" height="7.12" transform="translate(-109.5 141.89) rotate(-33.46)" fill="#925523"/><rect x="185.61" y="262.19" width="7.12" height="40.27" transform="translate(-140.31 365.61) rotate(-70.36)" fill="#925523"/><rect x="170.95" y="307.96" width="41.15" height="7.12" transform="translate(-91.14 79.51) rotate(-19.04)" fill="#925523"/><rect x="188.4" y="321.86" width="7.12" height="46.79" transform="translate(-199.64 397.16) rotate(-68.48)" fill="#925523"/><rect x="168.94" y="210.7" width="7.13" height="27.9" transform="translate(-78.39 356.1) rotate(-80.13)" fill="#925523"/></g><path d="M235.47,67.16l-48.74,32.91-17.24-6.9,0,18.57L120.7,144.65A86,86,0,0,1,235.47,67.16Z" fill="#3fb763"/><path d="M146.36,5.94,135.17,63.68,118.09,71,131.2,84.15,120,141.89A86,86,0,0,1,146.36,5.94Z" fill="#3fb763"/><path d="M120.7,144.65,72,177.57l-17.24-6.91,0,18.57L5.94,222.15a86,86,0,0,1,114.76-77.5Z" fill="#3fb763"/><path d="M121.25,145.45l-11.2,57.75L93,210.5l13.1,13.16L94.89,281.4a86,86,0,0,1,26.36-135.95Z" fill="#3fb763"/><path d="M257.19,171.81l-57.74-11.19-7.3-17.08L179,156.65l-57.74-11.2a86,86,0,0,1,135.94,26.36Z" fill="#3fb763"/><g id="trunk"><path d="M217.19,378.51l-11.76-1.63a253,253,0,0,0,2.36-34.45,249,249,0,0,0-58.91-161.12,294.41,294.41,0,0,1,29.25,128.41,297.53,297.53,0,0,1-7.17,65l-11.59-2.6a285.57,285.57,0,0,0,6.89-62.38A282.16,282.16,0,0,0,116.42,149a5.94,5.94,0,0,1,8.68-7.94,261,261,0,0,1,94.56,201.33A264,264,0,0,1,217.19,378.51Z" fill="#925523"/></g><path d="M235.47,67.16l-12.59,8.5A78.73,78.73,0,0,0,134.71,132v0c-1.83,1-3.61,2-5.37,3.09a74.33,74.33,0,0,1-6-8.22v0A86,86,0,0,1,235.47,67.16Z" fill="#84c884"/><path d="M146.36,6.54,143.6,20.77A78.75,78.75,0,0,0,122,125.45a89.9,89.9,0,0,0-3.58,15.29,86,86,0,0,1,27.9-134.2Z" fill="#84c884"/><path d="M116.89,143.6A93.22,93.22,0,0,0,104,152.77a78.68,78.68,0,0,0-85.38,60.68L5.6,222.26A86,86,0,0,1,116.89,143.6Z" fill="#84c884"/><path d="M118.88,158.41l-.38,2A78.75,78.75,0,0,0,97.89,266.63l-3,15.46a86,86,0,0,1,13.3-128.26c2,.31,4.06.71,6.08,1.21a8.44,8.44,0,0,0,.92,1.26A7.2,7.2,0,0,0,118.88,158.41Z" fill="#84c884"/><path d="M242.77,170.38v0a78.8,78.8,0,0,0-108.15-21h0l-.95-.16v0a7.13,7.13,0,0,0-.43-5,5.09,5.09,0,0,0-.57-1,7.38,7.38,0,0,0-.5-2.21c.21-1.3.5-2.63.81-3.91A85.95,85.95,0,0,1,256.4,173Z" fill="#84c884"/><path d="M120.7,150.59a5.93,5.93,0,0,1-5.93-6.18A91.92,91.92,0,0,1,237.46,61.56a5.94,5.94,0,0,1,1.33,10.52L190.05,105a6,6,0,0,1-5.53.59l-9.12-3.65,0,9.82a5.92,5.92,0,0,1-2.61,4.91L124,149.57A5.91,5.91,0,0,1,120.7,150.59ZM206.53,68.1a80,80,0,0,0-78.39,64.37l35.38-23.89,0-15.43a5.94,5.94,0,0,1,8.14-5.5L186,93.39l35.4-23.9A80.47,80.47,0,0,0,206.53,68.1Z" fill="#32964f"/><path d="M120,147.82a5.92,5.92,0,0,1-4.36-1.91A91.91,91.91,0,0,1,143.81.58a5.93,5.93,0,0,1,8.38,6.49L141,64.81a5.94,5.94,0,0,1-3.49,4.33l-9,3.86,6.92,7A5.93,5.93,0,0,1,137,85.27L125.83,143a5.91,5.91,0,0,1-5.83,4.8ZM138.06,17.55A80,80,0,0,0,116.65,128l8.12-41.9L113.89,75.18a5.94,5.94,0,0,1,1.87-9.65l14.18-6.07Z" fill="#32964f"/><path d="M5.94,228.08A5.92,5.92,0,0,1,0,221.9a91.91,91.91,0,0,1,122.68-82.84A5.94,5.94,0,0,1,124,149.57L75.28,182.49a6,6,0,0,1-5.53.59l-9.11-3.65,0,9.82a6,6,0,0,1-2.62,4.9L9.26,227.07A6,6,0,0,1,5.94,228.08ZM91.77,145.6a79.6,79.6,0,0,0-44.71,13.71A80.49,80.49,0,0,0,13.37,210l35.38-23.89,0-15.42a5.94,5.94,0,0,1,8.15-5.5l14.31,5.73,35.4-23.9A80.36,80.36,0,0,0,91.77,145.6Z" fill="#32964f"/><path d="M94.89,287.34a5.93,5.93,0,0,1-4.37-1.92,91.93,91.93,0,0,1,28.17-145.33,5.94,5.94,0,0,1,8.38,6.49l-11.19,57.74a5.9,5.9,0,0,1-3.49,4.33l-9,3.87,6.93,6.95a5.93,5.93,0,0,1,1.62,5.32l-11.19,57.74a5.91,5.91,0,0,1-5.83,4.81ZM113,157.07A80,80,0,0,0,91.53,267.53l8.13-41.91L88.77,214.69a5.93,5.93,0,0,1,1.87-9.64L104.82,199Z" fill="#32964f"/><path d="M257.19,177.75a6.07,6.07,0,0,1-1.12-.11l-57.75-11.2A5.91,5.91,0,0,1,194,163l-3.87-9-6.95,6.92a6,6,0,0,1-5.32,1.63l-57.74-11.2a5.93,5.93,0,0,1-2.89-10.19,91.61,91.61,0,0,1,62.2-24.34,92,92,0,0,1,83.13,52.51,5.94,5.94,0,0,1-5.37,8.49Zm-53.52-22.36,41.91,8.12a80,80,0,0,0-110.49-21.42L177,150.22,188,139.34a5.92,5.92,0,0,1,9.64,1.87Z" fill="#32964f"/><g id="sand"><path d="M40.3,396.72a5.94,5.94,0,0,1-1.8-11.6,376.61,376.61,0,0,1,76.41-15.89,386.06,386.06,0,0,1,50.44-1.76,380.45,380.45,0,0,1,46.87,4.36c11.19,1.74,22.52,4.05,33.68,6.86a5.94,5.94,0,0,1-2.9,11.52c-10.81-2.72-21.78-5-32.61-6.65A368.62,368.62,0,0,0,165,379.34a372.49,372.49,0,0,0-48.87,1.7,365,365,0,0,0-74,15.39A5.71,5.71,0,0,1,40.3,396.72Z" fill="#f2b61c"/></g></svg>