<svg id="Layer_1" data-name="Layer 1" xmlns="http://www.w3.org/2000/svg" width="1.81in" height="2.06in" viewBox="0 0 130.56 148.14"><title>ferriswheel</title><g id="metalbars"><path d="M65.28,132.37a64,64,0,0,1-17.76-2.51,2.5,2.5,0,0,1,1.4-4.8,59.49,59.49,0,0,0,32.73,0,2.5,2.5,0,0,1,1.39,4.8A64,64,0,0,1,65.28,132.37Z" fill="#dcdbd9"/><path d="M95.12,124.62a2.5,2.5,0,0,1-1.22-4.68,58.9,58.9,0,0,0,23.22-23.67,2.5,2.5,0,1,1,4.41,2.36A63.89,63.89,0,0,1,96.34,124.3,2.53,2.53,0,0,1,95.12,124.62Z" fill="#dcdbd9"/><path d="M123.51,90.14a2.36,2.36,0,0,1-.78-.13,2.5,2.5,0,0,1-1.6-3.15,59.11,59.11,0,0,0,.36-35.3,2.5,2.5,0,1,1,4.78-1.45,64,64,0,0,1-.39,38.3A2.49,2.49,0,0,1,123.51,90.14Z" fill="#dcdbd9"/><path d="M120.17,44a2.5,2.5,0,0,1-2.24-1.39A58.83,58.83,0,0,0,95.07,18a2.5,2.5,0,1,1,2.54-4.31,63.84,63.84,0,0,1,24.8,26.66,2.5,2.5,0,0,1-1.13,3.35A2.47,2.47,0,0,1,120.17,44Z" fill="#dcdbd9"/><path d="M47.5,12.53a2.5,2.5,0,0,1-.72-4.89,64.3,64.3,0,0,1,37,0,2.5,2.5,0,0,1-1.45,4.79,59.36,59.36,0,0,0-34.1,0A2.69,2.69,0,0,1,47.5,12.53Z" fill="#dcdbd9"/><path d="M10.39,44a2.44,2.44,0,0,1-1.11-.26,2.5,2.5,0,0,1-1.13-3.35A63.67,63.67,0,0,1,32.88,13.75a2.5,2.5,0,1,1,2.54,4.3A58.74,58.74,0,0,0,12.63,42.58,2.5,2.5,0,0,1,10.39,44Z" fill="#dcdbd9"/><path d="M7.05,90.14a2.49,2.49,0,0,1-2.37-1.73A64,64,0,0,1,4.29,50.1a2.5,2.5,0,0,1,4.78,1.45,59.14,59.14,0,0,0,.36,35.31A2.5,2.5,0,0,1,7.83,90,2.36,2.36,0,0,1,7.05,90.14Z" fill="#dcdbd9"/><path d="M35.43,124.62a2.52,2.52,0,0,1-1.21-.32A63.79,63.79,0,0,1,9,98.62a2.5,2.5,0,0,1,4.41-2.35,58.75,58.75,0,0,0,23.22,23.66,2.5,2.5,0,0,1-1.23,4.69Z" fill="#dcdbd9"/><path d="M43.35,124.62a2.35,2.35,0,0,1-.93-.19A2.49,2.49,0,0,1,41,121.18l19-47a2.5,2.5,0,0,1,4.63,1.87l-19,47A2.51,2.51,0,0,1,43.35,124.62Z" fill="#dcdbd9"/><path d="M33.85,148.14a2.56,2.56,0,0,1-.93-.18,2.49,2.49,0,0,1-1.38-3.25l5.58-13.84a2.5,2.5,0,0,1,4.64,1.87l-5.59,13.84A2.5,2.5,0,0,1,33.85,148.14Z" fill="#dcdbd9"/><path d="M87.33,124.63A2.5,2.5,0,0,1,85,123.07L65.76,76.19a2.5,2.5,0,1,1,4.63-1.9l19.25,46.89a2.49,2.49,0,0,1-1.36,3.26A2.64,2.64,0,0,1,87.33,124.63Z" fill="#dcdbd9"/><path d="M96.71,147.46a2.52,2.52,0,0,1-2.32-1.55L89,132.7a2.5,2.5,0,1,1,4.62-1.9L99,144a2.5,2.5,0,0,1-1.37,3.26A2.43,2.43,0,0,1,96.71,147.46Z" fill="#dcdbd9"/><path d="M115.15,148.14H15.36a2.5,2.5,0,0,1,0-5h99.79a2.5,2.5,0,0,1,0,5Z" fill="#f2b61c"/><path d="M65.28,132.37a2.5,2.5,0,0,1-2.5-2.5V75.8a2.5,2.5,0,1,1,5,0v54.07A2.5,2.5,0,0,1,65.28,132.37Z" fill="#dcdbd9"/><path d="M65.28,64a2.5,2.5,0,0,1-2.5-2.5V7.41a2.5,2.5,0,1,1,5,0V61.47A2.5,2.5,0,0,1,65.28,64Z" fill="#dcdbd9"/><path d="M22,114.43a2.45,2.45,0,0,1-1.76-.73,2.49,2.49,0,0,1,0-3.53L58.44,71.94A2.5,2.5,0,0,1,62,75.47L23.75,113.7A2.49,2.49,0,0,1,22,114.43Z" fill="#dcdbd9"/><path d="M70.35,66.07a2.5,2.5,0,0,1-1.77-4.27l38.23-38.23a2.5,2.5,0,0,1,3.53,3.54L72.11,65.34A2.45,2.45,0,0,1,70.35,66.07Z" fill="#dcdbd9"/><path d="M58.11,71.14H4.05a2.5,2.5,0,1,1,0-5H58.11a2.5,2.5,0,0,1,0,5Z" fill="#dcdbd9"/><path d="M126.51,71.14H72.45a2.5,2.5,0,0,1,0-5h54.06a2.5,2.5,0,0,1,0,5Z" fill="#dcdbd9"/><path d="M60.21,66.07a2.49,2.49,0,0,1-1.77-.73L20.22,27.11a2.5,2.5,0,0,1,3.53-3.54L62,61.8a2.5,2.5,0,0,1-1.77,4.27Z" fill="#dcdbd9"/><path d="M108.58,114.43a2.49,2.49,0,0,1-1.77-.73L68.58,75.47a2.5,2.5,0,0,1,3.53-3.53l38.23,38.23a2.49,2.49,0,0,1,0,3.53A2.45,2.45,0,0,1,108.58,114.43Z" fill="#dcdbd9"/></g><g id="cartseat"><path d="M40.62,12.59a2.5,2.5,0,0,1-2.5-2.5V2.5a2.5,2.5,0,0,1,5,0v7.59A2.5,2.5,0,0,1,40.62,12.59Z" fill="#f2b61c"/><path d="M47.52,5H33.72a2.5,2.5,0,0,1,0-5h13.8a2.5,2.5,0,0,1,0,5Z" fill="#f2b61c"/><path d="M89.94,12.59a2.5,2.5,0,0,1-2.5-2.5V2.5a2.5,2.5,0,0,1,5,0v7.59A2.5,2.5,0,0,1,89.94,12.59Z" fill="#f2b61c"/><path d="M96.84,5H83a2.5,2.5,0,0,1,0-5h13.8a2.5,2.5,0,0,1,0,5Z" fill="#f2b61c"/><path d="M88.89,124.61a2.49,2.49,0,0,1-2.5-2.5v-7.58a2.5,2.5,0,0,1,5,0v7.58A2.49,2.49,0,0,1,88.89,124.61Z" fill="#f2b61c"/><path d="M95.79,117H82a2.5,2.5,0,1,1,0-5h13.8a2.5,2.5,0,0,1,0,5Z" fill="#f2b61c"/><path d="M41.67,124.61a2.49,2.49,0,0,1-2.5-2.5v-7.58a2.5,2.5,0,0,1,5,0v7.58A2.49,2.49,0,0,1,41.67,124.61Z" fill="#f2b61c"/><path d="M48.57,117H34.77a2.5,2.5,0,0,1,0-5h13.8a2.5,2.5,0,0,1,0,5Z" fill="#f2b61c"/><path d="M121.16,90.14a2.5,2.5,0,0,1-2.5-2.5V80.05a2.5,2.5,0,1,1,5,0v7.59A2.5,2.5,0,0,1,121.16,90.14Z" fill="#f2b61c"/><path d="M128.06,82.55h-13.8a2.5,2.5,0,0,1,0-5h13.8a2.5,2.5,0,0,1,0,5Z" fill="#f2b61c"/><path d="M9.4,90.14a2.5,2.5,0,0,1-2.5-2.5V80.05a2.5,2.5,0,0,1,5,0v7.59A2.5,2.5,0,0,1,9.4,90.14Z" fill="#f2b61c"/><path d="M16.3,82.55H2.5a2.5,2.5,0,0,1,0-5H16.3a2.5,2.5,0,0,1,0,5Z" fill="#f2b61c"/><path d="M120.84,44a2.5,2.5,0,0,1-2.5-2.5V33.88a2.5,2.5,0,1,1,5,0v7.59A2.5,2.5,0,0,1,120.84,44Z" fill="#f2b61c"/><path d="M127.74,36.38h-13.8a2.5,2.5,0,1,1,0-5h13.8a2.5,2.5,0,1,1,0,5Z" fill="#f2b61c"/><path d="M9.72,44a2.5,2.5,0,0,1-2.5-2.5V33.88a2.5,2.5,0,1,1,5,0v7.59A2.5,2.5,0,0,1,9.72,44Z" fill="#f2b61c"/><path d="M16.62,36.38H2.82a2.5,2.5,0,0,1,0-5h13.8a2.5,2.5,0,0,1,0,5Z" fill="#f2b61c"/><g id="seat"><path d="M95.79,125.28a6.9,6.9,0,1,1-13.8,0v-3.16h13.8Z" fill="#ef5144"/></g><g id="seat-2" data-name="seat"><path d="M128.06,91a6.9,6.9,0,1,1-13.8,0V87.79h13.8Z" fill="#ef5144"/></g><g id="seat-3" data-name="seat"><path d="M48.57,125.28a6.9,6.9,0,1,1-13.8,0v-3.16h13.8Z" fill="#ef5144"/></g><g id="seat-4" data-name="seat"><path d="M16.62,91a6.9,6.9,0,0,1-13.8,0V87.79h13.8Z" fill="#ef5144"/></g><g id="seat-5" data-name="seat"><path d="M16.62,44.63a6.9,6.9,0,1,1-13.8,0V41.47h13.8Z" fill="#ef5144"/></g><g id="seat-6" data-name="seat"><path d="M47.52,13.25a6.9,6.9,0,0,1-13.8,0V10.09h13.8Z" fill="#ef5144"/></g><g id="seat-7" data-name="seat"><path d="M96.84,13.25a6.9,6.9,0,0,1-13.8,0V10.09h13.8Z" fill="#ef5144"/></g><g id="seat-8" data-name="seat"><path d="M127.74,44.63a6.9,6.9,0,1,1-13.8,0V41.47h13.8Z" fill="#ef5144"/></g><g id="cart"><path d="M88.89,134.68a9.41,9.41,0,0,1-9.4-9.4v-3.17a2.49,2.49,0,0,1,2.5-2.5h13.8a2.5,2.5,0,0,1,2.5,2.5v3.17A9.41,9.41,0,0,1,88.89,134.68Zm-4.4-10.07v.67a4.4,4.4,0,0,0,8.8,0v-.67Z" fill="#d63d30"/></g><g id="cart-2" data-name="cart"><path d="M41.67,134.68a9.41,9.41,0,0,1-9.4-9.4v-3.17a2.5,2.5,0,0,1,2.5-2.5h13.8a2.5,2.5,0,0,1,2.5,2.5v3.17A9.41,9.41,0,0,1,41.67,134.68Zm-4.4-10.07v.67a4.4,4.4,0,0,0,8.8,0v-.67Z" fill="#d63d30"/></g><g id="cart-3" data-name="cart"><path d="M121.16,100.2a9.41,9.41,0,0,1-9.4-9.4V87.64a2.49,2.49,0,0,1,2.5-2.5h13.8a2.49,2.49,0,0,1,2.5,2.5V90.8A9.41,9.41,0,0,1,121.16,100.2Zm-4.4-10.06v.66a4.4,4.4,0,0,0,8.8,0v-.66Z" fill="#d63d30"/></g><g id="cart-4" data-name="cart"><path id="seat-9" data-name="seat" d="M9.4,100.2A9.41,9.41,0,0,1,0,90.8V87.64a2.49,2.49,0,0,1,2.5-2.5H16.3a2.49,2.49,0,0,1,2.5,2.5V90.8A9.41,9.41,0,0,1,9.4,100.2ZM5,90.14v.66a4.4,4.4,0,0,0,8.8,0v-.66Z" fill="#d63d30"/></g><g id="cart-5" data-name="cart"><path id="seat-10" data-name="seat" d="M40.62,22.65a9.41,9.41,0,0,1-9.4-9.4V10.09a2.49,2.49,0,0,1,2.5-2.5h13.8a2.5,2.5,0,0,1,2.5,2.5v3.16A9.41,9.41,0,0,1,40.62,22.65Zm-4.4-10.06v.66a4.4,4.4,0,0,0,8.8,0v-.66Z" fill="#d63d30"/></g><g id="cart-6" data-name="cart"><path id="seat-11" data-name="seat" d="M89.94,22.65a9.41,9.41,0,0,1-9.4-9.4V10.09A2.5,2.5,0,0,1,83,7.59h13.8a2.5,2.5,0,0,1,2.5,2.5v3.16A9.41,9.41,0,0,1,89.94,22.65Zm-4.4-10.06v.66a4.4,4.4,0,0,0,8.8,0v-.66Z" fill="#d63d30"/></g><g id="cart-7" data-name="cart"><path id="seat-12" data-name="seat" d="M120.84,54a9.42,9.42,0,0,1-9.4-9.41V41.47a2.5,2.5,0,0,1,2.5-2.5h13.8a2.5,2.5,0,0,1,2.5,2.5v3.16A9.41,9.41,0,0,1,120.84,54ZM116.44,44v.66a4.4,4.4,0,1,0,8.8,0V44Z" fill="#d63d30"/></g><g id="cart-8" data-name="cart"><path id="seat-13" data-name="seat" d="M9.72,54a9.41,9.41,0,0,1-9.4-9.41V41.47A2.5,2.5,0,0,1,2.82,39h13.8a2.5,2.5,0,0,1,2.5,2.5v3.16A9.42,9.42,0,0,1,9.72,54ZM5.32,44v.66a4.4,4.4,0,1,0,8.8,0V44Z" fill="#d63d30"/></g></g><g id="center"><g id="solidcircle"><circle cx="65.28" cy="68.64" r="7.17" fill="#ef5144"/></g><g id="circle"><path d="M65.28,78.3A9.67,9.67,0,1,1,75,68.64,9.68,9.68,0,0,1,65.28,78.3Zm0-14.33A4.67,4.67,0,1,0,70,68.64,4.68,4.68,0,0,0,65.28,64Z" fill="#d63d30"/></g></g><g id="yellowwheel"><path id="yellowcircle" d="M65.28,103.33A34.7,34.7,0,1,1,100,68.64,34.74,34.74,0,0,1,65.28,103.33Zm0-64.39A29.7,29.7,0,1,0,95,68.64,29.73,29.73,0,0,0,65.28,38.94Z" fill="#f2b61c"/></g></svg>