<svg id="Layer_1" data-name="Layer 1" xmlns="http://www.w3.org/2000/svg" width="0.9in" height="2.09in" viewBox="0 0 65.14 150.39"><title>ice_cream</title><g id="cone"><path d="M52.7,53.23,32.57,148,12.45,53.23a7.52,7.52,0,0,0,5.09-7.11,7.52,7.52,0,1,0,15,0,7.52,7.52,0,1,0,15,0A7.51,7.51,0,0,0,52.7,53.23Z" fill="#b66a28"/><path d="M52.69,53.24,32.57,148l7.06-94.39h.46a7.52,7.52,0,0,0,7.52-7.52A7.52,7.52,0,0,0,52.69,53.24Z" fill="#db7d2f"/><path d="M32.57,148,12.45,53.24a7.54,7.54,0,0,0,5.09-7.12,7.52,7.52,0,0,0,7.51,7.52h.46Z" fill="#b66a28"/><path d="M39.63,53.63,32.57,148,25.51,53.63a7.51,7.51,0,0,0,7.06-7.51A7.52,7.52,0,0,0,39.63,53.63Z" fill="#c7732b"/><rect x="12.55" y="57.55" width="18.05" height="3.79" transform="translate(-35.72 32.67) rotate(-45.01)" fill="#925523"/><rect x="12.7" y="67.18" width="43.58" height="3.79" transform="translate(-38.75 44.64) rotate(-45.01)" fill="#925523"/><rect x="18.02" y="89.1" width="34.24" height="3.79" transform="translate(-54.05 51.52) rotate(-45.01)" fill="#925523"/><rect x="23.98" y="112.75" width="20.14" height="3.79" transform="translate(-71.1 57.67) rotate(-45.01)" fill="#925523"/><path d="M32.57,150.39a2.37,2.37,0,0,1-2.31-1.88L10.13,53.72l4.64-1,17.8,83.87L50.38,52.74l4.63,1L34.89,148.51A2.38,2.38,0,0,1,32.57,150.39Z" fill="#925523"/></g><g id="icecream"><g id="icecream-2" data-name="icecream"><path d="M63.59,46.12a8.47,8.47,0,0,1-8.46,8.47,8.13,8.13,0,0,1-2.74-.46A8.36,8.36,0,0,1,47.61,50a8.47,8.47,0,0,1-15,0,8.46,8.46,0,0,1-7,4.55,3.86,3.86,0,0,1-.51,0A8.44,8.44,0,0,1,17.55,50,8.47,8.47,0,1,1,6.05,38.65a27.6,27.6,0,0,1-1.51-9.06A28,28,0,1,1,59.1,38.64,8.48,8.48,0,0,1,63.59,46.12Z" fill="#f9f6e5"/></g><g id="icecream-3" data-name="icecream"><path d="M10,56.14a10,10,0,1,1,5.47-18.41,2.5,2.5,0,1,1-2.72,4.19A5.11,5.11,0,0,0,10,41.1a5,5,0,1,0,0,10,4.92,4.92,0,0,0,1.62-.27A5,5,0,0,0,15,46.12a2.5,2.5,0,0,1,5,0,10,10,0,0,1-10,10Z" fill="#d8cbad"/><path d="M25.05,56.14a10,10,0,0,1-10-10,2.5,2.5,0,0,1,5,0,5,5,0,0,0,5,5h.31a5,5,0,0,0,4.71-5,2.5,2.5,0,0,1,5,0,10,10,0,0,1-9.35,10C25.5,56.14,25.28,56.14,25.05,56.14Z" fill="#d8cbad"/><path d="M40.09,56.14l-.61,0a10,10,0,0,1-9.41-10,2.5,2.5,0,0,1,5,0,5,5,0,0,0,10,0,2.5,2.5,0,1,1,5,0A10,10,0,0,1,40.09,56.14Z" fill="#d8cbad"/><path d="M55.13,56.14a10,10,0,0,1-10-10,2.5,2.5,0,1,1,5,0A5,5,0,1,0,52.32,42a2.5,2.5,0,1,1-2.8-4.14,10,10,0,1,1,5.61,18.32Z" fill="#d8cbad"/><path d="M7.23,41.65A2.51,2.51,0,0,1,4.89,40a29.59,29.59,0,1,1,55.58-.59,2.5,2.5,0,1,1-4.71-1.66A24.59,24.59,0,1,0,8,29.58a24.39,24.39,0,0,0,1.58,8.68,2.52,2.52,0,0,1-1.46,3.23A2.48,2.48,0,0,1,7.23,41.65Z" fill="#d8cbad"/></g><g id="sprinkles"><circle cx="23.04" cy="18.03" r="0.71" fill="#d8cbad"/><path d="M23,19.21A1.19,1.19,0,1,1,24.22,18,1.18,1.18,0,0,1,23,19.21Zm0-1.42a.24.24,0,0,0-.24.24c0,.26.47.25.47,0A.23.23,0,0,0,23,17.79Z" fill="#d8cbad"/><circle cx="49.9" cy="33.26" r="0.71" fill="#d8cbad"/><path d="M49.9,34.44a1.18,1.18,0,1,1,1.19-1.18A1.18,1.18,0,0,1,49.9,34.44Zm0-1.42a.23.23,0,0,0-.23.24c0,.26.47.26.47,0A.24.24,0,0,0,49.9,33Z" fill="#d8cbad"/><circle cx="44.35" cy="24.34" r="0.71" fill="#d8cbad"/><path d="M44.35,25.52a1.18,1.18,0,1,1,1.18-1.18A1.19,1.19,0,0,1,44.35,25.52Zm0-1.42a.24.24,0,0,0-.24.24c0,.26.47.26.47,0A.23.23,0,0,0,44.35,24.1Z" fill="#d8cbad"/><circle cx="40.24" cy="14.24" r="0.71" fill="#d8cbad"/><path d="M40.24,15.42a1.19,1.19,0,1,1,1.19-1.18A1.18,1.18,0,0,1,40.24,15.42Zm0-1.42a.23.23,0,0,0-.23.24c0,.26.47.26.47,0A.24.24,0,0,0,40.24,14Z" fill="#d8cbad"/><circle cx="34.48" cy="29.94" r="0.71" fill="#d8cbad"/><path d="M34.48,31.13a1.19,1.19,0,1,1,1.18-1.19A1.18,1.18,0,0,1,34.48,31.13Zm0-1.42a.23.23,0,0,0-.23.23c0,.27.47.26.47,0A.24.24,0,0,0,34.48,29.71Z" fill="#d8cbad"/><circle cx="23.04" cy="31.84" r="0.71" fill="#d8cbad"/><path d="M23,33a1.18,1.18,0,1,1,1.18-1.18A1.18,1.18,0,0,1,23,33Zm0-1.41a.23.23,0,0,0-.24.23c0,.26.47.26.47,0A.23.23,0,0,0,23,31.61Z" fill="#d8cbad"/><circle cx="15.3" cy="22.92" r="0.71" fill="#d8cbad"/><path d="M15.3,24.1a1.18,1.18,0,1,1,1.18-1.18A1.18,1.18,0,0,1,15.3,24.1Zm0-1.42a.24.24,0,0,0-.24.24c0,.26.47.26.48,0A.24.24,0,0,0,15.3,22.68Z" fill="#d8cbad"/><circle cx="25.06" cy="40.6" r="0.71" fill="#d8cbad"/><path d="M25.06,41.78a1.18,1.18,0,1,1,1.18-1.18A1.18,1.18,0,0,1,25.06,41.78Zm0-1.42a.24.24,0,0,0-.24.24c0,.26.47.26.47,0A.23.23,0,0,0,25.06,40.36Z" fill="#d8cbad"/><circle cx="39.63" cy="40.6" r="0.71" fill="#d8cbad"/><path d="M39.63,41.78a1.18,1.18,0,1,1,1.18-1.18A1.18,1.18,0,0,1,39.63,41.78Zm0-1.42a.23.23,0,0,0-.23.24c0,.26.47.26.47,0A.24.24,0,0,0,39.63,40.36Z" fill="#d8cbad"/><circle cx="29.18" cy="12.14" r="0.71" fill="#d8cbad"/><path d="M29.18,13.32a1.18,1.18,0,1,1,1.19-1.18A1.18,1.18,0,0,1,29.18,13.32Zm0-1.42a.23.23,0,0,0-.23.24c0,.26.47.26.47,0A.24.24,0,0,0,29.18,11.9Z" fill="#d8cbad"/></g></g></svg>