<svg id="pineapple" xmlns="http://www.w3.org/2000/svg" width="1.31in" height="2.41in" viewBox="0 0 94.09 173.83"><title>pineapple</title><g id="head"><g id="green"><path d="M49.18,62.83c-.81,0-1.65-.06-2.49-.07H46c-1.09,0-2.16,0-3.2.1h0l-.85,0c-.31-.76-.62-1.54-.9-2.33-.16-.45-.32-.9-.47-1.34-.34-1-.65-2-.94-3l-.42-1.48a.15.15,0,0,0,0-.06c-.13-.49-.26-1-.38-1.49s-.27-1.19-.4-1.79c-.21-1-.38-1.9-.54-2.86-.07-.42-.14-.84-.21-1.28,0-.27-.07-.54-.11-.82-.16-1.14-.29-2.29-.38-3.45,0-.57-.09-1.14-.12-1.72,0-.42-.05-.82-.07-1.24s0-1-.05-1.45,0-1,0-1.46c0-1,0-2.1.07-3.14,0-.53.06-1,.09-1.56s.09-1.16.13-1.73l.15-1.36c.05-.47.11-.94.17-1.4,0-.1,0-.19,0-.29.06-.45.13-.91.2-1.37s.16-1,.26-1.48v0A67.87,67.87,0,0,1,46.34,2.5a68,68,0,0,1,8.29,22.29,69.13,69.13,0,0,1,1.11,12.36c0,.49,0,1,0,1.46s0,1,0,1.45,0,.82-.06,1.24L55.5,43q-.15,1.74-.39,3.45c0,.28-.08.55-.11.82-.07.44-.14.86-.21,1.28-.16,1-.33,1.91-.53,2.86-.14.6-.27,1.2-.41,1.79s-.25,1-.38,1.49c0,0,0,0,0,.06-.14.49-.27,1-.42,1.48-.29,1-.6,2-.94,3-.15.44-.3.89-.46,1.34-.29.79-.6,1.57-.91,2.33-.5,0-1-.07-1.54-.08" fill="#3fb763"/><path d="M70.21,30.46a68.82,68.82,0,0,1-3.17,12A68.18,68.18,0,0,1,54.9,63.36c-.84-.12-1.71-.23-2.59-.31-.52-.06-1-.1-1.58-.14.31-.76.62-1.54.91-2.33.16-.45.31-.9.46-1.34.34-1,.65-2,.94-3,.15-.5.28-1,.42-1.48,0,0,0,0,0-.06.13-.49.26-1,.38-1.49s.27-1.19.41-1.79c.2-1,.37-1.9.53-2.86.07-.42.14-.84.21-1.28,0-.27.07-.54.11-.82q.22-1.71.39-3.45l.12-1.72c0-.42,0-.82.06-1.24s0-1,0-1.45,0-1,0-1.46a69.13,69.13,0,0,0-1.11-12.36A68,68,0,0,1,70,6.67,67.85,67.85,0,0,1,70.21,30.46Z" fill="#3fb763"/><path d="M90.88,18.72a68.14,68.14,0,0,1-15.06,32.6A68.12,68.12,0,0,1,60.74,64.68c-1.15-.35-2.36-.65-3.61-.91-.73-.15-1.47-.29-2.23-.41A68.18,68.18,0,0,0,67,42.46a68.82,68.82,0,0,0,3.17-12A68,68,0,0,1,90.88,18.72Z" fill="#3fb763"/><path d="M41.94,62.91c-.76.05-1.5.12-2.22.2s-1.31.16-1.94.26A68.48,68.48,0,0,1,22.63,6.67,67.84,67.84,0,0,1,38,24.79v0c-.1.49-.18,1-.26,1.48s-.14.92-.2,1.37c0,.1,0,.19,0,.29-.06.46-.12.93-.17,1.4l-.15,1.36c0,.57-.09,1.15-.13,1.73S37,33.48,37,34c0,1-.07,2.09-.07,3.14,0,.49,0,1,0,1.46s0,1,.05,1.45,0,.82.07,1.24c0,.58.07,1.15.12,1.72.1,1.16.23,2.31.38,3.45,0,.28.08.55.11.82.07.44.14.86.21,1.28.16,1,.33,1.91.54,2.86.13.6.26,1.2.4,1.79s.25,1,.38,1.49a.15.15,0,0,1,0,.06l.42,1.48c.29,1,.6,2,.94,3,.15.44.31.89.47,1.34C41.32,61.37,41.63,62.15,41.94,62.91Z" fill="#3fb763"/><path d="M37.78,63.37c-1,.14-1.87.3-2.76.5-1.07.23-2.11.51-3.1.8A68.44,68.44,0,0,1,1.79,18.72,68,68,0,0,1,22.46,30.46,68.52,68.52,0,0,0,37.78,63.37Z" fill="#3fb763"/></g><g id="middlehighlight"><path d="M56.45,39.18c0,.49,0,1,0,1.46s0,1,0,1.45,0,.83-.07,1.24c0,.58-.07,1.15-.12,1.72,0,0,0,.09,0,.13q-.28-3.21-.85-6.35A68.09,68.09,0,0,0,47,16.54a68.07,68.07,0,0,0-8.29,22.29v0c-.1.49-.18,1-.26,1.49s-.14.91-.2,1.36a2.89,2.89,0,0,0,0,.29l-.18,1.4-.14,1.37c0,.14,0,.28,0,.43,0-.05,0-.1,0-.15l-.12-1.72c0-.41,0-.82-.06-1.24s0-1-.05-1.45,0-1,0-1.46c0-1,0-2.1.07-3.14q0-.8.09-1.56c0-.58.08-1.16.13-1.72l.14-1.37.18-1.4a2.89,2.89,0,0,1,0-.29c.06-.45.13-.91.2-1.36s.16-1,.26-1.49v0A68,68,0,0,1,47,4.53a68.06,68.06,0,0,1,8.3,22.3A68.93,68.93,0,0,1,56.45,39.18Z" fill="#84c884"/></g><g id="righthighlight"><path d="M70.92,30.46a68.49,68.49,0,0,1-3.17,12A68.14,68.14,0,0,1,55.6,63.36c-.83-.12-1.7-.24-2.59-.32-.52,0-1-.1-1.57-.13.31-.77.62-1.54.9-2.34.15-.41.3-.84.44-1.26a67.94,67.94,0,0,0,9-16.86,67.62,67.62,0,0,0,3.17-12,67.74,67.74,0,0,0,.56-18.94,67.26,67.26,0,0,1,5.28-4.85A67.85,67.85,0,0,1,70.92,30.46Z" fill="#84c884"/></g><g id="farrighthighlight"><path d="M90.88,18.72a68.14,68.14,0,0,1-15.06,32.6A67.61,67.61,0,0,1,60.74,64.68c-1.15-.35-2.36-.65-3.62-.91-.26-.05-.53-.11-.8-.15a67.72,67.72,0,0,0,13.5-12.3,68,68,0,0,0,14.54-29.9A65.83,65.83,0,0,1,90.88,18.72Z" fill="#84c884"/></g><g id="lefthighlight"><path d="M23.44,30.46a68.49,68.49,0,0,0,3.17,12A68.14,68.14,0,0,0,38.76,63.36c.83-.12,1.7-.24,2.59-.32.52,0,1-.1,1.57-.13-.31-.77-.62-1.54-.9-2.34-.15-.41-.3-.84-.44-1.26A68.64,68.64,0,0,1,29.45,30.46a67.74,67.74,0,0,1-.56-18.94,67.26,67.26,0,0,0-5.28-4.85A67.85,67.85,0,0,0,23.44,30.46Z" fill="#84c884"/></g><g id="farlefthighlight"><path d="M3.49,18.72a68.12,68.12,0,0,0,15.05,32.6A67.66,67.66,0,0,0,33.63,64.68c1.14-.35,2.36-.65,3.62-.91.26-.05.52-.11.79-.15a68.37,68.37,0,0,1-28-42.2A65.83,65.83,0,0,0,3.49,18.72Z" fill="#84c884"/></g><g id="leaves_outline" data-name="leaves outline"><path d="M42.65,65.41a2.52,2.52,0,0,1-2.32-1.55q-.48-1.2-.93-2.43c-.18-.48-.34-1-.5-1.43q-.48-1.38-1-3.06c-.15-.5-.29-1-.43-1.51v0a.25.25,0,0,1,0-.07l-.39-1.53c-.14-.6-.27-1.21-.4-1.81-.2-.92-.39-1.9-.58-3l-.2-1.28a.5.5,0,0,1,0-.12c0-.21,0-.41-.08-.62l0-.15c-.16-1.19-.3-2.39-.39-3.6,0-.58-.1-1.18-.13-1.78,0-.4-.05-.84-.07-1.28s0-1,0-1.51,0-1,0-1.5c0-1.09,0-2.19.07-3.26l.09-1.6c.05-.61.09-1.2.14-1.78l.15-1.41c.06-.5.12-1,.18-1.43,0-.12,0-.24,0-.36.06-.45.13-.9.2-1.36s.16-1,.25-1.49c0,0,0-.08,0-.12a70.56,70.56,0,0,1,8.6-23.11,2.5,2.5,0,0,1,4.31,0,70.34,70.34,0,0,1,8.6,23.11A71.55,71.55,0,0,1,59,37.15c0,.5,0,1,0,1.5s0,1,0,1.54,0,.85-.07,1.3-.07,1.15-.12,1.74c-.1,1.2-.23,2.4-.4,3.59l0,.11c0,.22-.06.43-.08.65,0,0,0,.09,0,.13L58,49c-.17,1-.35,2-.56,3l-.13.58c-.09.43-.19.85-.29,1.28s-.25,1-.38,1.53l0,.08h0c-.14.51-.28,1-.43,1.51-.31,1.12-.64,2.14-1,3.12-.12.39-.28.84-.44,1.28-.33.92-.65,1.72-1,2.51a2.5,2.5,0,0,1-2.51,1.56c-.47,0-1-.07-1.42-.08l.08-2.91-.14,2.9c-.78,0-1.58,0-2.39-.06h-.66c-1,0-2.09,0-3.08.09h0l-.74,0Zm4.83-5.15c.78,0,1.55,0,2.3.06l.22-.6c.16-.45.3-.85.43-1.25.33-.95.63-1.88.92-2.91.14-.48.27-1,.4-1.43l0-.1c.12-.47.24-.94.35-1.4s.18-.79.27-1.19l.13-.56c.19-.88.35-1.79.51-2.72l.2-1.21.09-.73c.17-1.19.29-2.3.39-3.41,0-.55.08-1.1.11-1.65s.05-.81.06-1.19,0-.95,0-1.4,0-1,0-1.42a66.12,66.12,0,0,0-1.08-11.91,65.3,65.3,0,0,0-5.83-17.5,65.19,65.19,0,0,0-5.82,17.4l0,.15c-.08.46-.16.92-.23,1.37s-.14.9-.19,1.31c0,0,0,.08,0,.11l0,.1a.49.49,0,0,1,0,.12c-.06.45-.11.9-.17,1.35L40.42,31c0,.5-.09,1.06-.13,1.63s-.06,1-.08,1.5c-.05,1-.07,2-.07,3,0,.45,0,.91,0,1.36s0,1,.05,1.43,0,.79.06,1.17c0,.6.07,1.15.12,1.7.09,1.11.21,2.22.37,3.32l0,.14.09.68.19,1.21c.18,1,.35,1.92.53,2.73.13.62.25,1.18.38,1.74s.24,1,.37,1.44v0h0c.13.48.26,1,.4,1.44.3,1,.59,2,.9,2.86.16.48.31.91.46,1.33.07.19.14.38.22.58.75,0,1.52,0,2.3-.06Z" fill="#32964f"/><path d="M55.61,65.86l-.35,0c-1-.14-1.75-.24-2.47-.3-.52-.06-1-.1-1.49-.13A2.5,2.5,0,0,1,49.13,62c.3-.74.59-1.48.87-2.25.16-.45.3-.85.43-1.25.33-.95.63-1.88.92-2.91.14-.48.27-1,.4-1.43l0-.1c.12-.47.24-.94.35-1.4s.18-.79.27-1.19l.13-.56c.19-.88.35-1.79.51-2.72l.2-1.21c0-.24.06-.49.09-.73.16-1.18.29-2.31.39-3.42,0-.54.08-1.09.11-1.64s.05-.81.06-1.19,0-.95,0-1.4,0-1,0-1.42a66.12,66.12,0,0,0-1.08-11.91,2.5,2.5,0,0,1,.31-1.71,70.07,70.07,0,0,1,16-18.79,2.5,2.5,0,0,1,4,1.48,70.21,70.21,0,0,1,.18,24.66A71.9,71.9,0,0,1,70.1,43.31,70.38,70.38,0,0,1,57.51,65,2.51,2.51,0,0,1,55.61,65.86Zm1-10.44h0c-.14.51-.28,1-.43,1.51-.29,1.05-.6,2-.91,2.93A65.51,65.51,0,0,0,65.4,41.6,66.37,66.37,0,0,0,68.46,30,65.59,65.59,0,0,0,69,11.59,64.84,64.84,0,0,0,58,25.27a72.79,72.79,0,0,1,1,11.88c0,.5,0,1,0,1.5s0,1,0,1.54,0,.85-.07,1.3-.07,1.15-.12,1.74c-.11,1.2-.24,2.4-.4,3.57l0,.13c0,.22-.06.43-.08.65,0,0,0,.09,0,.13L58,49c-.17,1-.35,2-.56,3l-.13.58c-.09.43-.19.85-.29,1.28s-.25,1-.38,1.53Z" fill="#32964f"/><path d="M61.45,67.18a2.64,2.64,0,0,1-.73-.11c-1.06-.32-2.2-.61-3.38-.85-.7-.15-1.4-.28-2.12-.39a2.5,2.5,0,0,1-2-1.6,2.53,2.53,0,0,1,.44-2.49A65.39,65.39,0,0,0,65.4,41.6,66.37,66.37,0,0,0,68.46,30a2.48,2.48,0,0,1,.87-1.5A70.09,70.09,0,0,1,90.76,16.36a2.5,2.5,0,0,1,3.3,2.77A70.82,70.82,0,0,1,78.45,52.92,70.61,70.61,0,0,1,62.81,66.78,2.54,2.54,0,0,1,61.45,67.18Zm-1.33-5.46L61,62A65.77,65.77,0,0,0,74.62,49.71a66,66,0,0,0,13.61-27,65.31,65.31,0,0,0-15,9.08,72,72,0,0,1-3.12,11.5A70.39,70.39,0,0,1,60.12,61.72Z" fill="#32964f"/><path d="M38.49,65.87a2.51,2.51,0,0,1-1.9-.88A71.1,71.1,0,0,1,20.71,30.88a70.21,70.21,0,0,1,.17-24.66,2.5,2.5,0,0,1,4.05-1.48,70.11,70.11,0,0,1,16,18.79,2.56,2.56,0,0,1,.34,1.26,2.73,2.73,0,0,1,0,.5c-.08.46-.16.91-.23,1.37s-.14.9-.19,1.31c0,0,0,.08,0,.11l0,.1a.49.49,0,0,1,0,.12c-.06.45-.11.9-.17,1.35L40.42,31c0,.5-.09,1.06-.13,1.63s-.06,1-.08,1.5c-.05,1-.07,2-.07,3,0,.46,0,.91,0,1.36s0,1,.05,1.43,0,.79.06,1.17c0,.6.07,1.15.12,1.7.1,1.1.22,2.23.37,3.33l0,.12.09.69.19,1.21c.18,1,.35,1.92.53,2.73.13.62.25,1.18.38,1.74s.24,1,.37,1.44v0h0c.13.48.26,1,.4,1.44.3,1,.59,2,.9,2.86.16.48.31.91.46,1.33.27.75.57,1.49.87,2.23a2.51,2.51,0,0,1-2.16,3.44c-.72,0-1.42.11-2.11.19s-1.23.15-1.83.24A2.34,2.34,0,0,1,38.49,65.87ZM25.13,11.59A64.85,64.85,0,0,0,25.64,30,65.83,65.83,0,0,0,38.86,59.87c-.31-.88-.62-1.86-.92-2.93-.15-.5-.29-1-.43-1.51v0a.25.25,0,0,1,0-.07l-.39-1.53c-.14-.6-.27-1.21-.4-1.81-.2-.92-.39-1.9-.58-3l-.2-1.28a.5.5,0,0,1,0-.12c0-.21,0-.41-.08-.62l0-.15c-.15-1.19-.29-2.39-.39-3.58,0-.6-.1-1.2-.13-1.8,0-.4-.05-.84-.07-1.28s0-1,0-1.51,0-1,0-1.5c0-1.09,0-2.19.07-3.26l.09-1.6c.05-.61.09-1.2.14-1.78l.15-1.41c.06-.5.12-1,.18-1.43,0-.12,0-.24,0-.36.06-.45.13-.9.2-1.36,0-.24.07-.46.11-.68A65.16,65.16,0,0,0,25.13,11.59Z" fill="#32964f"/><path d="M32.63,67.17a2.49,2.49,0,0,1-1.37-.4A70.81,70.81,0,0,1,15.65,52.92,70.89,70.89,0,0,1,0,19.13a2.5,2.5,0,0,1,3.31-2.77A70.33,70.33,0,0,1,24.77,28.54a2.48,2.48,0,0,1,.87,1.5A65.83,65.83,0,0,0,40.4,61.75a2.49,2.49,0,0,1,.43,2.5,2.46,2.46,0,0,1-2,1.59c-.88.13-1.74.29-2.58.47s-2,.47-2.93.76A2.44,2.44,0,0,1,32.63,67.17ZM5.87,22.73A65.92,65.92,0,0,0,33.05,62l.92-.23a70.59,70.59,0,0,1-10-18.4,71.64,71.64,0,0,1-3.13-11.51A65,65,0,0,0,5.87,22.73Z" fill="#32964f"/></g></g><g id="body"><g id="colour"><path d="M86.21,116.71c0,3.86-.06,7.81-.29,11.74-.08,1.32-.18,2.63-.3,4a64.11,64.11,0,0,1-4.19,18.68A30.78,30.78,0,0,1,69.19,166c-5.4,3.33-12.48,5.3-21.78,5.34H46.7c-9.31,0-16.4-2-21.79-5.34a30.6,30.6,0,0,1-12.23-14.9,64.19,64.19,0,0,1-4.21-18.69c-.12-1.31-.21-2.62-.29-3.94-.24-3.92-.3-7.88-.3-11.74s.06-7.82.3-11.75c.08-1.32.17-2.63.3-3.94a63.86,63.86,0,0,1,4.2-18.69A30.72,30.72,0,0,1,24.91,67.44c5.39-3.33,12.48-5.3,21.79-5.34h.7c9.3,0,16.39,2,21.78,5.35h0A30.78,30.78,0,0,1,81.43,82.33,64.51,64.51,0,0,1,85.62,101q.18,2,.3,4C86.15,108.89,86.21,112.85,86.21,116.71Z" fill="#ffc83a"/></g><g id="highlight"><path d="M16.91,74.16c12.76-10.59,31.23-3.38,45.57,12.26,17,18.55,23.25,56.34,12.2,74.65a33.27,33.27,0,0,0,6.26-10,64.57,64.57,0,0,0,4.2-18.7q.18-2,.3-3.93c.23-3.93.29-7.88.29-11.74s-.06-7.82-.29-11.75c-.08-1.32-.18-2.63-.31-4a64.11,64.11,0,0,0-4.19-18.68A30.77,30.77,0,0,0,68.7,67.44c-5.39-3.33-12.48-5.29-21.79-5.33h-.7c-9.3,0-16.38,2-21.78,5.34h0A28.42,28.42,0,0,0,16.91,74.16Z" fill="#ffd16d"/></g><g id="outline"><path d="M46.69,173.83h-.43c-9.23,0-17-2-23-5.71A33.23,33.23,0,0,1,10,152a66.18,66.18,0,0,1-4.39-19.42c-.12-1.34-.22-2.68-.3-4-.21-3.47-.3-7.25-.3-11.9s.09-8.42.3-11.9c.09-1.53.19-2.81.31-4A65.8,65.8,0,0,1,10,81.37,33.32,33.32,0,0,1,23.24,65.31c6.05-3.74,13.79-5.66,23-5.71h.84c9.17,0,16.87,1.95,22.91,5.65l.12.07A33.29,33.29,0,0,1,83.37,81.37a65.47,65.47,0,0,1,4.37,19.41c.12,1.22.22,2.5.31,4,.21,3.46.3,7.24.3,11.89s-.09,8.42-.29,11.88c-.1,1.54-.2,2.83-.32,4a65.8,65.8,0,0,1-4.37,19.41,33.24,33.24,0,0,1-13.23,16c-6.06,3.75-13.81,5.67-23,5.72ZM46.6,64.59h-.25c-8.32,0-15.21,1.71-20.48,5-5,3.08-8.68,7.57-11.25,13.72a61.48,61.48,0,0,0-4,18c-.12,1.18-.21,2.4-.3,3.86-.2,3.37-.29,7.06-.29,11.6s.09,8.23.29,11.6c.08,1.28.17,2.56.29,3.85a61.48,61.48,0,0,0,4,18c2.56,6.16,6.23,10.65,11.25,13.73,5.27,3.27,12.16,4.94,20.48,5H47c8.3,0,15.19-1.71,20.48-5a28,28,0,0,0,11.24-13.73,61.16,61.16,0,0,0,4-18c.11-1.17.2-2.4.29-3.88.2-3.35.29-7,.29-11.58s-.09-8.23-.29-11.59c-.09-1.47-.18-2.7-.29-3.87a61.54,61.54,0,0,0-4-18A28,28,0,0,0,67.63,69.65l-.13-.08c-5.27-3.26-12.16-4.93-20.47-5H46.6Z" fill="#e0a626"/></g><g id="hash"><path d="M47.05,173.07a1.75,1.75,0,0,1-1.24-.51L6.87,133.62a1.75,1.75,0,1,1,2.48-2.47l38.93,38.94a1.75,1.75,0,0,1-1.23,3Z" fill="#e0a526"/><path d="M68.83,167.73a1.76,1.76,0,0,1-1.24-.52l-61-61a1.75,1.75,0,0,1,2.47-2.48l61,61a1.75,1.75,0,0,1,0,2.47A1.78,1.78,0,0,1,68.83,167.73Z" fill="#e0a526"/><path d="M81.07,152.83a1.75,1.75,0,0,1-1.24-.51L11.08,83.57a1.75,1.75,0,0,1,0-2.47,1.73,1.73,0,0,1,2.47,0L82.3,149.85a1.75,1.75,0,0,1-1.23,3Z" fill="#e0a526"/><path d="M85.56,130.2a1.72,1.72,0,0,1-1.24-.52l-61-61a1.75,1.75,0,1,1,2.47-2.48l61,61a1.76,1.76,0,0,1-1.24,3Z" fill="#e0a526"/><path d="M85.26,102.76a1.75,1.75,0,0,1-1.24-.51L45.11,63.34a1.75,1.75,0,0,1,2.47-2.48L86.49,99.78a1.75,1.75,0,0,1-1.23,3Z" fill="#e0a526"/><path d="M8.12,102.77a1.75,1.75,0,0,1-1.24-3l38.91-38.9a1.75,1.75,0,0,1,2.5,2.44l-.34.36L9.36,102.26A1.77,1.77,0,0,1,8.12,102.77Z" fill="#e0a526"/><path d="M7.82,130.2a1.75,1.75,0,0,1-1.24-3l61-61a1.75,1.75,0,0,1,2.48,2.48l-61,61A1.74,1.74,0,0,1,7.82,130.2Z" fill="#e0a526"/><path d="M12.32,152.83a1.75,1.75,0,0,1-1.24-3L79.83,81.1a1.75,1.75,0,1,1,2.48,2.47L13.55,152.32A1.74,1.74,0,0,1,12.32,152.83Z" fill="#e0a526"/><path d="M24.55,167.73a1.75,1.75,0,0,1-1.23-3l61-61a1.75,1.75,0,1,1,2.48,2.48l-61,61A1.75,1.75,0,0,1,24.55,167.73Z" fill="#e0a526"/><path d="M46.34,173.07a1.75,1.75,0,0,1-1.23-3l.36-.35L84,131.17a1.75,1.75,0,1,1,2.47,2.47L47.56,172.57A1.71,1.71,0,0,1,46.34,173.07Z" fill="#e0a526"/></g><g id="dots"><path d="M46.7,108.28a5.14,5.14,0,1,1,5.13-5.14A5.14,5.14,0,0,1,46.7,108.28Zm0-7.28a2.14,2.14,0,1,0,2.13,2.14A2.14,2.14,0,0,0,46.7,101Z" fill="#e0a526"/><path d="M73.84,108.28A5.14,5.14,0,1,1,79,103.14,5.14,5.14,0,0,1,73.84,108.28Zm0-7.28A2.14,2.14,0,1,0,76,103.14,2.13,2.13,0,0,0,73.84,101Z" fill="#e0a526"/><path d="M73.84,135.42A5.14,5.14,0,1,1,79,130.28,5.14,5.14,0,0,1,73.84,135.42Zm0-7.28A2.14,2.14,0,1,0,76,130.28,2.13,2.13,0,0,0,73.84,128.14Z" fill="#e0a526"/><path d="M19.48,135.42a5.14,5.14,0,1,1,5.14-5.14A5.15,5.15,0,0,1,19.48,135.42Zm0-7.28a2.14,2.14,0,1,0,2.14,2.14A2.14,2.14,0,0,0,19.48,128.14Z" fill="#e0a526"/><path d="M19.48,108.28a5.14,5.14,0,1,1,5.14-5.14A5.15,5.15,0,0,1,19.48,108.28Zm0-7.28a2.14,2.14,0,1,0,2.14,2.14A2.14,2.14,0,0,0,19.48,101Z" fill="#e0a526"/><path d="M19.48,81.13A5.14,5.14,0,0,1,14.34,76a1.5,1.5,0,0,1,3,0,2.14,2.14,0,1,0,2.14-2.14,2.16,2.16,0,0,0-.62.09A1.5,1.5,0,1,1,18,71.08a5,5,0,0,1,1.48-.22,5.14,5.14,0,1,1,0,10.27Z" fill="#e0a526"/><path d="M19.48,162.56a5.09,5.09,0,0,1-1.5-.22,1.5,1.5,0,1,1,.88-2.87,2.15,2.15,0,0,0,2.76-2.05,2.14,2.14,0,0,0-4.28,0,1.5,1.5,0,0,1-3,0,5.14,5.14,0,1,1,5.14,5.14Z" fill="#e0a526"/><path d="M73.84,162.56A5.14,5.14,0,1,1,79,157.42a1.5,1.5,0,0,1-3,0,2.11,2.11,0,1,0-1.47,2,1.5,1.5,0,0,1,.94,2.85A5.16,5.16,0,0,1,73.84,162.56Z" fill="#e0a526"/><path d="M46.7,80.81a5.14,5.14,0,1,1,5.13-5.14A5.14,5.14,0,0,1,46.7,80.81Zm0-7.27a2.14,2.14,0,1,0,2.13,2.13A2.14,2.14,0,0,0,46.7,73.54Z" fill="#e0a526"/><path d="M73.84,80.81a5.14,5.14,0,1,1,1-10.17,1.5,1.5,0,1,1-.6,2.94,2.14,2.14,0,1,0-.44,4.23A2.14,2.14,0,0,0,76,75.67a1.5,1.5,0,0,1,3,0A5.14,5.14,0,0,1,73.84,80.81Z" fill="#e0a526"/><path d="M46.7,135.42a5.14,5.14,0,1,1,5.13-5.14A5.14,5.14,0,0,1,46.7,135.42Zm0-7.28a2.14,2.14,0,1,0,2.13,2.14A2.14,2.14,0,0,0,46.7,128.14Z" fill="#e0a526"/><path d="M46.7,162.56a5.14,5.14,0,1,1,5.13-5.14A5.14,5.14,0,0,1,46.7,162.56Zm0-7.27a2.14,2.14,0,1,0,2.13,2.13A2.14,2.14,0,0,0,46.7,155.29Z" fill="#e0a526"/></g></g></svg>