<svg id="popsicle" xmlns="http://www.w3.org/2000/svg" width="0.78in" height="2.06in" viewBox="0 0 55.84 148.64"><title>popsicle</title><g id="stick"><path d="M22,106H33.88a0,0,0,0,1,0,0v34.59a5.58,5.58,0,0,1-5.58,5.58h-.75A5.58,5.58,0,0,1,22,140.55V106a0,0,0,0,1,0,0Z" fill="#ffc83a"/><path d="M28.29,148.64h-.74a8.1,8.1,0,0,1-8.09-8.09V106a2.5,2.5,0,0,1,2.5-2.5H33.88a2.5,2.5,0,0,1,2.5,2.5v34.58A8.1,8.1,0,0,1,28.29,148.64Zm-3.83-40.17v32.08a3.09,3.09,0,0,0,3.09,3.09h.74a3.1,3.1,0,0,0,3.09-3.09V108.47Z" fill="#e0a626"/><path d="M28.48,113.46H22a1.75,1.75,0,1,1,0-3.5h6.52a1.75,1.75,0,1,1,0,3.5Z" fill="#e0a526"/><path d="M33.88,123.05H27.36a1.75,1.75,0,0,1,0-3.5h6.52a1.75,1.75,0,1,1,0,3.5Z" fill="#e0a526"/><path d="M28.48,130.67H22a1.75,1.75,0,1,1,0-3.5h6.52a1.75,1.75,0,1,1,0,3.5Z" fill="#e0a526"/><path d="M33.88,140.85H27.36a1.75,1.75,0,1,1,0-3.5h6.52a1.75,1.75,0,0,1,0,3.5Z" fill="#e0a526"/></g><g id="popsicle-2" data-name="popsicle"><path d="M26.89,2.5h3.19A23.83,23.83,0,0,1,53.9,26.33V98.92a7,7,0,0,1-7,7H10.11a7,7,0,0,1-7-7V26.33A23.83,23.83,0,0,1,26.89,2.5Z" fill="#ef5144"/><path d="M53.34,26.33V37H2.5V26.33A23.83,23.83,0,0,1,26.33,2.5h3.18A23.83,23.83,0,0,1,53.34,26.33Z" fill="#f15e54"/><rect x="2.5" y="36.99" width="50.84" height="34.49" fill="#ef5144"/><path d="M53.34,71.48V98.92a7.05,7.05,0,0,1-7.05,7H9.55a7.05,7.05,0,0,1-7-7V71.48Z" fill="#ed4434"/><path d="M23.59,92.81H13.32a2,2,0,0,1-2-2v-64A6.82,6.82,0,0,1,18.13,20h.64a6.83,6.83,0,0,1,6.82,6.82v64A2,2,0,0,1,23.59,92.81Zm-8.27-4h6.27v-62A2.82,2.82,0,0,0,18.77,24h-.64a2.81,2.81,0,0,0-2.81,2.82Z" fill="#d63d30"/><path d="M42.52,92.81H32.25a2,2,0,0,1-2-2v-64A6.83,6.83,0,0,1,37.06,20h.65a6.83,6.83,0,0,1,6.81,6.82v64A2,2,0,0,1,42.52,92.81Zm-8.27-4h6.27v-62A2.81,2.81,0,0,0,37.71,24h-.65a2.81,2.81,0,0,0-2.81,2.82Z" fill="#d63d30"/><path d="M46.29,108.47H9.55A9.56,9.56,0,0,1,0,98.92V26.33A26.36,26.36,0,0,1,26.33,0h3.18A26.36,26.36,0,0,1,55.84,26.33V98.92A9.56,9.56,0,0,1,46.29,108.47ZM26.33,5A21.36,21.36,0,0,0,5,26.33V98.92a4.55,4.55,0,0,0,4.55,4.55H46.29a4.55,4.55,0,0,0,4.55-4.55V26.33A21.36,21.36,0,0,0,29.51,5Z" fill="#d63d30"/></g></svg>