<svg id="sunglass" xmlns="http://www.w3.org/2000/svg" width="2.14in" height="0.92in" viewBox="0 0 153.96 66.43"><title>sunglass</title><g id="details"><polygon points="105.56 2.28 48.41 2.28 41.88 9.22 76.98 9.22 112.08 9.22 105.56 2.28" fill="#ffc83a"/><path d="M151.68,35.3H145.5a2.28,2.28,0,0,1,0-4.56h6.18a2.28,2.28,0,1,1,0,4.56Z" fill="#925523"/><path d="M8.46,35.3H2.28a2.28,2.28,0,0,1,0-4.56H8.46a2.28,2.28,0,0,1,0,4.56Z" fill="#925523"/><path d="M97.22,11.63H56.74a2.28,2.28,0,0,1,0-4.56H97.22a2.28,2.28,0,1,1,0,4.56Z" fill="#e0a626"/><path d="M69,25.23a2.28,2.28,0,0,1-1.75-.82,2.3,2.3,0,0,1,.29-3.22,14.72,14.72,0,0,1,18.82,0,2.28,2.28,0,1,1-2.92,3.5,10.15,10.15,0,0,0-13,0A2.28,2.28,0,0,1,69,25.23Z" fill="#925523"/><path d="M112.08,11.5H41.88a2.28,2.28,0,0,1-1.66-3.84L46.75.72A2.27,2.27,0,0,1,48.41,0h57.14a2.29,2.29,0,0,1,1.67.72l6.52,6.94a2.28,2.28,0,0,1-1.66,3.84ZM47.15,6.94h59.66l-2.24-2.38H49.39Z" fill="#e0a626"/></g><g id="glass"><path d="M124.41,64.15h-.85A38.63,38.63,0,0,1,84.93,25.52V23.44A14.22,14.22,0,0,1,99.14,9.22h26.69A19.67,19.67,0,0,1,145.5,28.89V43.06A21.09,21.09,0,0,1,124.41,64.15Z" fill="#eaeaea"/><path d="M29.56,64.15h.84A38.64,38.64,0,0,0,69,25.52V23.44A14.22,14.22,0,0,0,54.82,9.22H28.13A19.67,19.67,0,0,0,8.46,28.89V43.06A21.1,21.1,0,0,0,29.56,64.15Z" fill="#eaeaea"/><g opacity="0.3"><path d="M139.88,57.53A20.93,20.93,0,0,1,127.93,64L85.12,21.19a14.22,14.22,0,0,1,8-10.46Z" fill="#fff"/></g><g opacity="0.3"><path d="M144.8,48.63A20.81,20.81,0,0,1,142,54.81L96.78,9.57a14.18,14.18,0,0,1,2.36-.2h6.41Z" fill="#fff"/></g><g opacity="0.3"><path d="M58.29,52.41A38.72,38.72,0,0,1,47.7,60.22l-38-38a19.76,19.76,0,0,1,8.36-10Z" fill="#fff"/></g><g opacity="0.3"><path d="M64.17,44.45a38.09,38.09,0,0,1-3.61,5.36L21.33,10.58a19.65,19.65,0,0,1,6.8-1.21h1Z" fill="#fff"/></g></g><g id="rim"><path d="M124.41,66.43h-.85A41,41,0,0,1,82.65,25.52V23.44A16.51,16.51,0,0,1,99.14,6.94h26.69a22,22,0,0,1,22,22V43.06A23.4,23.4,0,0,1,124.41,66.43ZM99.14,11.5A12,12,0,0,0,87.2,23.44v2.08a36.4,36.4,0,0,0,36.36,36.35h.85a18.83,18.83,0,0,0,18.81-18.81V28.89A17.41,17.41,0,0,0,125.83,11.5Z" fill="#e0a626"/><path d="M30.4,66.43h-.84A23.4,23.4,0,0,1,6.18,43.06V28.89a22,22,0,0,1,22-21.95H54.82a16.52,16.52,0,0,1,16.5,16.5v2.08A41,41,0,0,1,30.4,66.43ZM28.13,11.5A17.41,17.41,0,0,0,10.74,28.89V43.06A18.84,18.84,0,0,0,29.56,61.87h.84A36.4,36.4,0,0,0,66.76,25.52V23.44A12,12,0,0,0,54.82,11.5Z" fill="#e0a626"/></g></svg>