<svg id="surfing" xmlns="http://www.w3.org/2000/svg" width="2.2in" height="2.17in" viewBox="0 0 158.72 156.25"><title>surfing</title><g id="background"><path d="M140.4,80.07a60.58,60.58,0,0,1-7.69,29.64,70,70,0,0,1-15.14,1.57c-33,0-44.4-28.16-77-28.16A62.34,62.34,0,0,0,19,86.75,60.9,60.9,0,1,1,140.4,80.07Z" fill="#f9f6e5"/><path d="M18.66,89.46a2.5,2.5,0,0,1-2.48-2.23,65.63,65.63,0,0,1-.37-6.88A64.05,64.05,0,0,1,65.7,18.17a2.5,2.5,0,1,1,1.08,4.88,59,59,0,0,0-46,57.3,61,61,0,0,0,.34,6.35,2.49,2.49,0,0,1-2.22,2.75Z" fill="#d8cbad"/><path d="M133.36,111.91a2.38,2.38,0,0,1-1.18-.3,2.48,2.48,0,0,1-1-3.38A58.74,58.74,0,0,0,92.23,23.05a2.5,2.5,0,1,1,1.08-4.88,63.72,63.72,0,0,1,42.25,92.43A2.49,2.49,0,0,1,133.36,111.91Z" fill="#d8cbad"/></g><g id="surfboard"><path d="M96.94,64.81v42.3C84.2,101.86,74.36,92.84,61.79,87.49V64.81c0-45.36,8.78-62.31,17.57-62.31S96.94,19.45,96.94,64.81Z" fill="#3fb763"/><rect x="77" y="2.5" width="5" height="37.04" fill="#32964f"/><path d="M99.58,107.25h-5V64.8C94.58,17.6,85.1,5,79.5,5S64.43,17.6,64.43,64.8V86.71h-5V64.8C59.43,6.31,73.47,0,79.5,0S99.58,6.31,99.58,64.8Z" fill="#32964f"/></g><g id="waves"><path d="M156.22,139.68s-10.57,14.07-38.36,14.07c-33,0-44.4-28.15-77-28.15C14.5,125.6,2.5,139.68,2.5,139.68V97.19s12-14.07,38.36-14.07c32.6,0,44,28.15,77,28.15,27.79,0,38.36-14.08,38.36-14.08Z" fill="#ffd16d"/><path d="M156.22,108.06v10.38s-10.57,14.08-38.36,14.08c-33,0-44.4-28.16-77-28.16-26.36,0-38.36,14.08-38.36,14.08V108.06S14.5,94,40.86,94c32.6,0,44,28.16,77,28.16C145.65,122.14,156.22,108.06,156.22,108.06Z" fill="#ffc83a"/><path d="M156.22,128.82v10.37s-10.57,14.08-38.36,14.08c-33,0-44.4-28.16-77-28.16-26.36,0-38.36,14.08-38.36,14.08V128.82s12-14.08,38.36-14.08c32.6,0,44,28.15,77,28.15C145.65,142.89,156.22,128.82,156.22,128.82Z" fill="#ffc83a"/><path d="M117.86,113.77c-17.26,0-28.86-7.38-40.07-14.53-11-7-21.4-13.62-36.93-13.62C16.1,85.62,4.51,98.69,4.4,98.82A2.5,2.5,0,0,1,.6,95.57C1.12,95,13.66,80.62,40.86,80.62c17,0,28.49,7.32,39.61,14.41s21.59,13.74,37.39,13.74c26.24,0,36.27-13,36.36-13.08a2.5,2.5,0,0,1,4,3C157.76,99.31,146.57,113.77,117.86,113.77Z" fill="#f2b61c"/><path d="M117.86,135c-17.26,0-28.86-7.38-40.07-14.52-11-7-21.4-13.63-36.93-13.63-24.76,0-36.35,13.07-36.46,13.2a2.5,2.5,0,0,1-3.8-3.25c.52-.61,13.06-15,40.26-15,17,0,28.49,7.32,39.61,14.41S102.06,130,117.86,130c26.24,0,36.27-12.94,36.36-13.08a2.5,2.5,0,0,1,4,3C157.76,120.55,146.57,135,117.86,135Z" fill="#f2b61c"/><path d="M117.86,156.25c-17.26,0-28.86-7.38-40.07-14.52-11-7-21.4-13.63-36.93-13.63-24.76,0-36.35,13.07-36.46,13.21a2.5,2.5,0,0,1-3.8-3.26c.52-.61,13.06-15,40.26-15,17,0,28.49,7.32,39.61,14.41s21.59,13.74,37.39,13.74c26.24,0,36.27-12.94,36.36-13.07a2.5,2.5,0,0,1,4,3C157.76,141.79,146.57,156.25,117.86,156.25Z" fill="#f2b61c"/></g><g id="sash"><path d="M96.51,45.79,61.93,80.37v-16q0-3.71.08-7.15L94,25.28A154.93,154.93,0,0,1,96.51,45.79Z" fill="#f15e54"/><path d="M61.93,82.68a2.31,2.31,0,0,1-.89-.17,2.33,2.33,0,0,1-1.43-2.14v-16c0-2.34,0-4.7.08-7.2a2.36,2.36,0,0,1,.68-1.59L92.31,23.64a2.32,2.32,0,0,1,3.91,1.17,158.12,158.12,0,0,1,2.6,20.82,2.32,2.32,0,0,1-.67,1.8L63.57,82A2.31,2.31,0,0,1,61.93,82.68ZM64.31,58.2c0,2.12-.06,4.15-.06,6.17v10.4L94.13,44.89c-.39-5.42-.94-10.4-1.67-14.85Z" fill="#d63d30"/></g></svg>