<svg id="watermelon" xmlns="http://www.w3.org/2000/svg" width="2.16in" height="1.11in" viewBox="0 0 155.26 80.13"><title>watermelon</title><g id="fruit"><path d="M140.78,3A63.15,63.15,0,0,1,14.48,3Z" fill="#ef5144"/><path d="M123.44,1.88a45.81,45.81,0,0,1-91.62,0Z" fill="#f15e54"/><path d="M77.63,68.15A65.72,65.72,0,0,1,12,2.5,2.5,2.5,0,0,1,14.48,0h126.3a2.5,2.5,0,0,1,2.5,2.5A65.72,65.72,0,0,1,77.63,68.15ZM17,5a60.65,60.65,0,0,0,121.2,0Z" fill="#d63d30"/></g><g id="seed"><path d="M40.24,15.1a7.17,7.17,0,0,1-1.08,3.79,1,1,0,0,1-1.73,0,7.19,7.19,0,0,1,0-7.58,1,1,0,0,1,1.73,0A7.17,7.17,0,0,1,40.24,15.1Z" fill="#ed4434"/><path d="M56,15.1a7.08,7.08,0,0,1-1.08,3.79,1,1,0,0,1-1.72,0,7.13,7.13,0,0,1,0-7.58,1,1,0,0,1,1.72,0A7.08,7.08,0,0,1,56,15.1Z" fill="#ed4434"/><path d="M71.71,15.1a7.17,7.17,0,0,1-1.08,3.79,1,1,0,0,1-1.73,0,7.19,7.19,0,0,1,0-7.58,1,1,0,0,1,1.73,0A7.17,7.17,0,0,1,71.71,15.1Z" fill="#ed4434"/><path d="M87.44,15.1a7.08,7.08,0,0,1-1.08,3.79,1,1,0,0,1-1.72,0,7.13,7.13,0,0,1,0-7.58,1,1,0,0,1,1.72,0A7.08,7.08,0,0,1,87.44,15.1Z" fill="#ed4434"/><path d="M103.18,15.1a7.17,7.17,0,0,1-1.08,3.79,1,1,0,0,1-1.73,0,7.19,7.19,0,0,1,0-7.58,1,1,0,0,1,1.73,0A7.17,7.17,0,0,1,103.18,15.1Z" fill="#ed4434"/><path d="M118.91,15.1a7.08,7.08,0,0,1-1.08,3.79,1,1,0,0,1-1.72,0,7.13,7.13,0,0,1,0-7.58,1,1,0,0,1,1.72,0A7.08,7.08,0,0,1,118.91,15.1Z" fill="#ed4434"/><path d="M48.11,31.17A7.12,7.12,0,0,1,47,35a1,1,0,0,1-1.72,0,7.21,7.21,0,0,1,0-7.59,1,1,0,0,1,1.72,0A7.11,7.11,0,0,1,48.11,31.17Z" fill="#ed4434"/><path d="M63.84,31.17A7.11,7.11,0,0,1,62.76,35,1,1,0,0,1,61,35a7.21,7.21,0,0,1,0-7.59,1,1,0,0,1,1.73,0A7.1,7.1,0,0,1,63.84,31.17Z" fill="#ed4434"/><path d="M79.58,31.17A7.12,7.12,0,0,1,78.49,35a1,1,0,0,1-1.72,0,7.21,7.21,0,0,1,0-7.59,1,1,0,0,1,1.72,0A7.11,7.11,0,0,1,79.58,31.17Z" fill="#ed4434"/><path d="M95.31,31.17A7.11,7.11,0,0,1,94.23,35a1,1,0,0,1-1.73,0,7.21,7.21,0,0,1,0-7.59,1,1,0,0,1,1.73,0A7.1,7.1,0,0,1,95.31,31.17Z" fill="#ed4434"/><path d="M111.05,31.17A7.12,7.12,0,0,1,110,35a1,1,0,0,1-1.72,0,7.21,7.21,0,0,1,0-7.59,1,1,0,0,1,1.72,0A7.11,7.11,0,0,1,111.05,31.17Z" fill="#ed4434"/><path d="M56,47.25A7.1,7.1,0,0,1,54.89,51a1,1,0,0,1-1.72,0,7.15,7.15,0,0,1,0-7.59,1,1,0,0,1,1.72,0A7.11,7.11,0,0,1,56,47.25Z" fill="#ed4434"/><path d="M71.71,47.25A7.19,7.19,0,0,1,70.63,51a1,1,0,0,1-1.73,0,7.21,7.21,0,0,1,0-7.59,1,1,0,0,1,1.73,0A7.2,7.2,0,0,1,71.71,47.25Z" fill="#ed4434"/><path d="M87.44,47.25A7.1,7.1,0,0,1,86.36,51a1,1,0,0,1-1.72,0,7.15,7.15,0,0,1,0-7.59,1,1,0,0,1,1.72,0A7.11,7.11,0,0,1,87.44,47.25Z" fill="#ed4434"/><path d="M103.18,47.25A7.19,7.19,0,0,1,102.1,51a1,1,0,0,1-1.73,0,7.21,7.21,0,0,1,0-7.59,1,1,0,0,1,1.73,0A7.2,7.2,0,0,1,103.18,47.25Z" fill="#ed4434"/></g><g id="skin"><path d="M152.76,2.5A75.13,75.13,0,0,1,2.5,2.5h12a63.15,63.15,0,0,0,126.3,0Z" fill="#3fb763"/><path d="M77.63,80.13A77.71,77.71,0,0,1,0,2.5,2.5,2.5,0,0,1,2.5,0h12A2.5,2.5,0,0,1,17,2.5a60.65,60.65,0,0,0,121.3,0,2.5,2.5,0,0,1,2.5-2.5h12a2.5,2.5,0,0,1,2.5,2.5A77.71,77.71,0,0,1,77.63,80.13ZM5,5A72.63,72.63,0,0,0,150.22,5h-7A65.65,65.65,0,0,1,12,5Z" fill="#32964f"/></g></svg>